{
  "accessors": [
    {
      "bufferView": 2,
      "componentType": 5126,
      "count": 15383,
      "max": [
        0.18346840143203735,
        0.3434722125530243,
        0.24306367337703705
      ],
      "min": [
        -0.18346840143203735,
        -0.3434722125530243,
        -0.22813215851783752
      ],
      "type": "VEC3"
    },
    {
      "bufferView": 2,
      "byteOffset": 184596,
      "componentType": 5126,
      "count": 15383,
      "max": [
        0.0,
        1.0,
        1.0
      ],
      "min": [
        0.0,
        -1.0,
        -1.0
      ],
      "type": "VEC3"
    },
    {
      "bufferView": 1,
      "componentType": 5126,
      "count": 15383,
      "max": [
        1.0,
        1.0000001192092896
      ],
      "min": [
        -1.7763568394002505e-15,
        -4.440892098500626e-16
      ],
      "type": "VEC2"
    },
    {
      "bufferView": 0,
      "componentType": 5125,
      "count": 89136,
      "type": "SCALAR"
    },
    {
      "bufferView": 2,
      "byteOffset": 369192,
      "componentType": 5126,
      "count": 7000,
      "max": [
        0.20103275775909424,
        0.18845488131046295,
        0.27354928851127625
      ],
      "min": [
        -0.024006949737668037,
        -0.351509690284729,
        -0.28294670581817627
      ],
      "type": "VEC3"
    },
    {
      "bufferView": 2,
      "byteOffset": 453192,
      "componentType": 5126,
      "count": 7000,
      "max": [
        0.0,
        1.0,
        -0.0
      ],
      "min": [
        0.0,
        1.0,
        -0.0
      ],
      "type": "VEC3"
    },
    {
      "bufferView": 1,
      "byteOffset": 123064,
      "componentType": 5126,
      "count": 7000,
      "max": [
        0.8750001192092896,
        1.0000001192092896
      ],
      "min": [
        0.125,
        0.0
      ],
      "type": "VEC2"
    },
    {
      "bufferView": 0,
      "byteOffset": 356544,
      "componentType": 5125,
      "count": 36864,
      "type": "SCALAR"
    },
    {
      "bufferView": 2,
      "byteOffset": 537192,
      "componentType": 5126,
      "count": 1649,
      "max": [
        0.19741015136241913,
        0.2074398249387741,
        0.03325587883591652
      ],
      "min": [
        0.16505856812000275,
        0.167912557721138,
        -0.026069853454828262
      ],
      "type": "VEC3"
    },
    {
      "bufferView": 2,
      "byteOffset": 556980,
      "componentType": 5126,
      "count": 1649,
      "max": [
        0.0,
        1.0,
        -0.0
      ],
      "min": [
        0.0,
        1.0,
        -0.0
      ],
      "type": "VEC3"
    },
    {
      "bufferView": 1,
      "byteOffset": 179064,
      "componentType": 5126,
      "count": 1649,
      "max": [
        0.8750001192092896,
        1.0000001192092896
      ],
      "min": [
        0.125,
        0.0
      ],
      "type": "VEC2"
    },
    {
      "bufferView": 0,
      "byteOffset": 504000,
      "componentType": 5125,
      "count": 9216,
      "type": "SCALAR"
    },
    {
      "bufferView": 2,
      "byteOffset": 576768,
      "componentType": 5126,
      "count": 5382,
      "max": [
        0.18910068273544312,
        0.15103787183761597,
        0.0350494310259819
      ],
      "min": [
        0.17336803674697876,
        0.10105003416538239,
        -0.02278069220483303
      ],
      "type": "VEC3"
    },
    {
      "bufferView": 2,
      "byteOffset": 641352,
      "componentType": 5126,
      "count": 5382,
      "max": [
        0.0,
        1.0,
        -0.0
      ],
      "min": [
        0.0,
        1.0,
        -0.0
      ],
      "type": "VEC3"
    },
    {
      "bufferView": 1,
      "byteOffset": 192256,
      "componentType": 5126,
      "count": 5382,
      "max": [
        0.8750001192092896,
        1.0000001192092896
      ],
      "min": [
        0.125,
        0.0
      ],
      "type": "VEC2"
    },
    {
      "bufferView": 0,
      "byteOffset": 540864,
      "componentType": 5125,
      "count": 30720,
      "type": "SCALAR"
    },
    {
      "bufferView": 2,
      "byteOffset": 705936,
      "componentType": 5126,
      "count": 4286,
      "max": [
        0.18645983934402466,
        0.3122035264968872,
        0.1565570831298828
      ],
      "min": [
        0.05485602468252182,
        0.17651328444480896,
        -0.1380194127559662
      ],
      "type": "VEC3"
    },
    {
      "bufferView": 2,
      "byteOffset": 757368,
      "componentType": 5126,
      "count": 4286,
      "max": [
        0.0,
        1.0,
        -0.0
      ],
      "min": [
        0.0,
        1.0,
        -0.0
      ],
      "type": "VEC3"
    },
    {
      "bufferView": 1,
      "byteOffset": 235312,
      "componentType": 5126,
      "count": 4286,
      "max": [
        1.0000001192092896,
        1.0
      ],
      "min": [
        0.0,
        0.0
      ],
      "type": "VEC2"
    },
    {
      "bufferView": 0,
      "byteOffset": 663744,
      "componentType": 5125,
      "count": 23808,
      "type": "SCALAR"
    },
    {
      "bufferView": 2,
      "byteOffset": 808800,
      "componentType": 5126,
      "count": 4286,
      "max": [
        0.18744701147079468,
        0.2758026719093323,
        0.11311157047748566
      ],
      "min": [
        0.15783655643463135,
        0.21504108607769012,
        -0.101618692278862
      ],
      "type": "VEC3"
    },
    {
      "bufferView": 2,
      "byteOffset": 860232,
      "componentType": 5126,
      "count": 4286,
      "max": [
        0.0,
        1.0,
        -0.0
      ],
      "min": [
        0.0,
        1.0,
        -0.0
      ],
      "type": "VEC3"
    },
    {
      "bufferView": 1,
      "byteOffset": 269600,
      "componentType": 5126,
      "count": 4286,
      "max": [
        1.0000001192092896,
        1.0
      ],
      "min": [
        0.0,
        0.0
      ],
      "type": "VEC2"
    },
    {
      "bufferView": 0,
      "byteOffset": 758976,
      "componentType": 5125,
      "count": 23808,
      "type": "SCALAR"
    },
    {
      "bufferView": 2,
      "byteOffset": 911664,
      "componentType": 5126,
      "count": 16,
      "max": [
        0.008501346223056316,
        0.2899550199508667,
        0.21914000809192657
      ],
      "min": [
        -0.008501346223056316,
        0.2213156819343567,
        -0.20443041622638702
      ],
      "type": "VEC3"
    },
    {
      "bufferView": 2,
      "byteOffset": 911856,
      "componentType": 5126,
      "count": 16,
      "max": [
        1.0,
        0.0,
        0.0
      ],
      "min": [
        -1.0,
        0.0,
        0.0
      ],
      "type": "VEC3"
    },
    {
      "bufferView": 1,
      "byteOffset": 303888,
      "componentType": 5126,
      "count": 16,
      "max": [
        0.625,
        0.75
      ],
      "min": [
        0.375,
        0.0
      ],
      "type": "VEC2"
    },
    {
      "bufferView": 0,
      "byteOffset": 854208,
      "componentType": 5125,
      "count": 24,
      "type": "SCALAR"
    }
  ],
  "asset": {
    "extras": {
      "author": "Juan martín (https://sketchfab.com/napoleon67y)",
      "license": "CC-BY-4.0 (http://creativecommons.org/licenses/by/4.0/)",
      "source": "https://sketchfab.com/3d-models/golang-3d-15eb07b1c2a542c89b938d683ecf4fc0",
      "title": "Golang 3D"
    },
    "generator": "Sketchfab-13.74.0",
    "version": "2.0"
  },
  "bufferViews": [
    {
      "buffer": 0,
      "byteLength": 854304,
      "name": "floatBufferViews",
      "target": 34963
    },
    {
      "buffer": 0,
      "byteLength": 304016,
      "byteOffset": 854304,
      "byteStride": 8,
      "name": "floatBufferViews",
      "target": 34962
    },
    {
      "buffer": 0,
      "byteLength": 912048,
      "byteOffset": 1158320,
      "byteStride": 12,
      "name": "floatBufferViews",
      "target": 34962
    }
  ],
  "buffers": [
    {
      "byteLength": 2070368,
      "uri": "scene.bin"
    }
  ],
  "materials": [
    {
      "doubleSided": true,
      "name": "main_celeste",
      "pbrMetallicRoughness": {
        "baseColorFactor": [
          0.0,
          0.662194,
          0.8,
          1.0
        ],
        "metallicFactor": 0.0,
        "roughnessFactor": 0.5
      }
    },
    {
      "doubleSided": true,
      "name": "piel_material",
      "pbrMetallicRoughness": {
        "baseColorFactor": [
          0.650005,
          0.388771,
          0.0865887,
          1.0
        ],
        "metallicFactor": 0.0,
        "roughnessFactor": 0.5
      }
    },
    {
      "doubleSided": true,
      "name": "nariz",
      "pbrMetallicRoughness": {
        "baseColorFactor": [
          0.0134104,
          0.0134104,
          0.0134104,
          1.0
        ],
        "metallicFactor": 0.0,
        "roughnessFactor": 0.361702
      }
    },
    {
      "doubleSided": true,
      "name": "dientes",
      "pbrMetallicRoughness": {
        "baseColorFactor": [
          0.8,
          0.8,
          0.8,
          1.0
        ],
        "metallicFactor": 0.0,
        "roughnessFactor": 0.244681
      }
    },
    {
      "doubleSided": true,
      "name": "ojos",
      "pbrMetallicRoughness": {
        "baseColorFactor": [
          0.8,
          0.8,
          0.8,
          1.0
        ],
        "metallicFactor": 0.0,
        "roughnessFactor": 0.0638298
      }
    },
    {
      "doubleSided": true,
      "name": "pupila",
      "pbrMetallicRoughness": {
        "baseColorFactor": [
          0.0,
          0.0,
          0.0,
          1.0
        ],
        "metallicFactor": 0.0,
        "roughnessFactor": 0.0
      }
    },
    {
      "doubleSided": true,
      "name": "orejas_black",
      "pbrMetallicRoughness": {
        "baseColorFactor": [
          0.0,
          0.0,
          0.0,
          1.0
        ],
        "metallicFactor": 0.0,
        "roughnessFactor": 0.5
      }
    }
  ],
  "meshes": [
    {
      "name": "Object_0",
      "primitives": [
        {
          "attributes": {
            "NORMAL": 1,
            "POSITION": 0,
            "TEXCOORD_0": 2
          },
          "indices": 3,
          "material": 0,
          "mode": 4
        }
      ]
    },
    {
      "name": "Object_1",
      "primitives": [
        {
          "attributes": {
            "NORMAL": 5,
            "POSITION": 4,
            "TEXCOORD_0": 6
          },
          "indices": 7,
          "material": 1,
          "mode": 4
        }
      ]
    },
    {
      "name": "Object_2",
      "primitives": [
        {
          "attributes": {
            "NORMAL": 9,
            "POSITION": 8,
            "TEXCOORD_0": 10
          },
          "indices": 11,
          "material": 2,
          "mode": 4
        }
      ]
    },
    {
      "name": "Object_3",
      "primitives": [
        {
          "attributes": {
            "NORMAL": 13,
            "POSITION": 12,
            "TEXCOORD_0": 14
          },
          "indices": 15,
          "material": 3,
          "mode": 4
        }
      ]
    },
    {
      "name": "Object_4",
      "primitives": [
        {
          "attributes": {
            "NORMAL": 17,
            "POSITION": 16,
            "TEXCOORD_0": 18
          },
          "indices": 19,
          "material": 4,
          "mode": 4
        }
      ]
    },
    {
      "name": "Object_5",
      "primitives": [
        {
          "attributes": {
            "NORMAL": 21,
            "POSITION": 20,
            "TEXCOORD_0": 22
          },
          "indices": 23,
          "material": 5,
          "mode": 4
        }
      ]
    },
    {
      "name": "Object_6",
      "primitives": [
        {
          "attributes": {
            "NORMAL": 25,
            "POSITION": 24,
            "TEXCOORD_0": 26
          },
          "indices": 27,
          "material": 6,
          "mode": 4
        }
      ]
    }
  ],
  "nodes": [
    {
      "children": [
        1
      ],
      "matrix": [
        2.318549871444702,
        0.0,
        0.0,
        0.0,
        0.0,
        5.14821490203921e-16,
        -2.318549871444702,
        0.0,
        0.0,
        2.318549871444702,
        5.14821490203921e-16,
        0.0,
        0.0,
        0.0,
        0.0,
        1.0
      ],
      "name": "Sketchfab_model"
    },
    {
      "children": [
        2
      ],
      "name": "root"
    },
    {
      "children": [
        3
      ],
      "matrix": [
        1.0,
        0.0,
        0.0,
        0.0,
        0.0,
        2.220446049250313e-16,
        1.0,
        0.0,
        0.0,
        -1.0,
        2.220446049250313e-16,
        0.0,
        0.0,
        0.0,
        0.0,
        1.0
      ],
      "name": "GLTF_SceneRootNode"
    },
    {
      "children": [
        4,
        5,
        6,
        7,
        8,
        9,
        10
      ],
      "name": "cuerpo_0"
    },
    {
      "mesh": 0,
      "name": "Object_4"
    },
    {
      "mesh": 1,
      "name": "Object_5"
    },
    {
      "mesh": 2,
      "name": "Object_6"
    },
    {
      "mesh": 3,
      "name": "Object_7"
    },
    {
      "mesh": 4,
      "name": "Object_8"
    },
    {
      "mesh": 5,
      "name": "Object_9"
    },
    {
      "mesh": 6,
      "name": "Object_10"
    }
  ],
  "scene": 0,
  "scenes": [
    {
      "name": "Sketchfab_Scene",
      "nodes": [
        0
      ]
    }
  ]
}
